# AST/ASF file generated using VICON BodyLanguage
# -----------------------------------------------
:version 1.10
:name VICON
:units
  mass 1.0
  length 0.45
  angle deg
:documentation
   .ast/.asf automatically generated from VICON data using
   VICON BodyBuilder and BodyLanguage model FoxedUp or BRILLIANT.MOD
:root
   order TX TY TZ RX RY RZ
   axis XYZ
   position 0 0 0  
   orientation 0 0 0 
:bonedata
  begin
     id 1 
     name lhipjoint
     direction 0.535335 -0.74333 0.401095 
     length 2.04549 
     axis 0 0 0  XYZ
  end
  begin
     id 2 
     name lfemur
     direction 0.34202 -0.939693 0  
     length 6.95643  
     axis 0 0 20  XYZ
    dof rx ry rz
    limits (-160.0 20.0)
           (-70.0 70.0)
           (-60.0 70.0)
  end
  begin
     id 3 
     name ltibia
     direction 0.34192 -0.939729 0   
     length 5.55969   
     axis 0 0 20   XYZ
    dof rx
    limits (-10.0 170.0)
  end
  begin
     id 4 
     name lfoot
     direction 0.216943 -0.596046 0.773088   
     length 2.27918   
     axis -90 7.62852e-016 20   XYZ
    dof rx rz
    limits (-45.0 90.0)
           (-70.0 20.0)
  end
  begin
     id 5 
     name ltoes
     direction 1.53519e-011 -4.21748e-011 1   
     length 1.05562   
     axis -90 7.62852e-016 20   XYZ
    dof rx
    limits (-90.0 20.0)
  end
  begin
     id 6 
     name rhipjoint
     direction -0.576368 -0.719173 0.38806   
     length 2.1142  
     axis 0 0 0  XYZ 
  end
  begin
     id 7 
     name rfemur
     direction -0.34202 -0.939693 0   
     length 7.07928   
     axis 0 0 -20   XYZ
    dof rx ry rz
    limits (-160.0 20.0)
           (-70.0 70.0)
           (-70.0 60.0)
  end
  begin
     id 8 
     name rtibia
     direction -0.34202 -0.939693 0   
     length 5.79974   
     axis 0 0 -20   XYZ
    dof rx
    limits (-10.0 170.0)
 end
 begin
     id 9 
     name rfoot
     direction -0.189288 -0.520065 0.832888   
     length 2.42173  
     axis -90 -7.62852e-016 -20   XYZ
    dof rx rz
    limits (-45.0 90.0)
           (-20.0 70.0)
  end
  begin
     id 10 
     name rtoes
     direction -1.53574e-011 -4.21658e-011 1   
     length 1.14469   
     axis -90 -7.62852e-016 -20   XYZ
    dof rx
    limits (-90.0 20.0)
  end
  begin
     id 11 
     name lowerback
     direction -0.00135702 0.993803 0.111144   
     length 1.91308   
     axis 0 0 0   XYZ
    dof rx ry rz
    limits (-20.0 45.0)
           (-30.0 30.0)
           (-30.0 30.0)
  end
  begin
     id 12 
     name upperback
     direction -0.0056745 0.999813 0.0184631   
     length 1.9212   
     axis 0 0 0   XYZ
    dof rx ry rz
    limits (-20.0 45.0)
           (-30.0 30.0)
           (-30.0 30.0)
  end
  begin
     id 13 
     name thorax
     direction -0.00733434 0.999426 -0.0330788   
     length 1.94196   
     axis 0 0 0   XYZ
    dof rx ry rz
    limits (-20.0 45.0)
           (-30.0 30.0)
           (-30.0 30.0)
  end
  begin
     id 14 
     name lowerneck
     direction 0.0563074 0.996944 -0.0541571   
     length 2.34257   
     axis 0 0 0   XYZ
    dof rx ry rz
    limits (-20.0 45.0)
           (-30.0 30.0)
           (-30.0 30.0)
  end
  begin
     id 15 
     name upperneck
     direction -0.0544519 0.976166 -0.210085   
     length 2.32506   
     axis 0 0 0   XYZ
    dof rx ry rz
    limits (-20.0 45.0)
           (-30.0 30.0)
           (-30.0 30.0)
  end
  begin
     id 16
     name head
     direction -0.0226035 0.997615 -0.0652205  
     length 2.3648  
     axis 0 0 0   XYZ
    dof rx ry rz
    limits (-20.0 45.0)
           (-30.0 30.0)
           (-30.0 30.0)
  end
  begin
     id 17 
     name lclavicle
     direction 0.92109 0.381297 -0.0787716  
     length 4.0487  
     axis 0 0 0   XYZ
    dof ry rz
    limits (-20.0 10.0)
           (0.0 20.0)
  end
  begin
     id 18 
     name lhumerus
     direction 1 -4.48986e-011 3.56724e-027   
     length 4.94991   
     axis 180 -30 -90   XYZ
    dof rx ry rz
    limits (-60.0 90.0)
           (-90.0 90.0)
           (-90.0 90.0)
  end
  begin
     id 19
     name lradius
     direction 1 -4.48981e-011 8.62147e-027   
     length 2.7606   
     axis 180 -30 -90   XYZ
    dof rx
    limits (-10.0 170.0)
  end
  begin
     id 20
     name lwrist
     direction 1 -4.48989e-011 1.59799e-026   
     length 1.3803   
     axis -1.17785e-014 90 90   XYZ
    dof ry
    limits (-180.0 0.0)
 end
  begin
     id 21 
     name lhand
     direction 1 -4.48896e-011 3.19599e-026   
     length 0.843936   
     axis -2.03931e-014 90 90   XYZ
    dof rx rz
    limits (-90.0 90.0)
           (-45.0 45.0)
  end
  begin
     id 22 
     name lfingers
     direction 1 -4.48887e-011 6.39197e-026   
     length 0.680403   
     axis -4.07862e-014 90 90   XYZ
    dof rx
    limits (0.0 90.0)
  end
  begin
     id 23
     name lthumb
     direction 0.707107 -6.348e-011 0.707107   
     length 0.976926   
     axis -90 45 2.85299e-015   XYZ
    dof rx rz
    limits (-45.0 45.0)
           (-45.0 45.0)
  end
  begin
     id 24 
     name rclavicle
     direction -0.951104 0.307692 -0.026953   
     length 4.21801  
     axis 0 0 0   XYZ 
    dof ry rz
    limits (-10.0 20.0)
           (-20.0 0.0)
  end
  begin
     id 25 
     name rhumerus
     direction -1 -4.4896e-011 -1.8171e-018  
     length 4.32982   
     axis 180 30 90   XYZ
    dof rx ry rz
    limits (-90.0 60.0)
           (-90.0 90.0)
           (-90.0 90.0)
  end
  begin
     id 26 
     name rradius
     direction -1 -4.48959e-011 8.25165e-027   
     length 3.20057   
     axis 180 30 90   XYZ
    dof rx
    limits (-10.0 170.0)
  end
  begin
     id 27 
     name rwrist
     direction -1 -4.48997e-011 1.59799e-026   
     length 1.60029   
     axis -1.17785e-014 -90 -90   XYZ
    dof ry
    limits (-180.0 0.0)
  end
  begin
     id 28
     name rhand
     direction -1 -4.49023e-011 3.19599e-026   
     length 0.960433   
     axis -2.03931e-014 -90 -90   XYZ
    dof rx rz
    limits (-90.0 90.0)
           (-45.0 45.0)
  end
  begin
     id 29
     name rfingers
     direction -1 -4.48802e-011 6.39197e-026   
     length 0.774326   
     axis -4.07862e-014 -90 -90   XYZ
    dof rx
    limits (0.0 90.0)
  end
  begin
     id 30
     name rthumb
     direction -0.707107 -6.34876e-011 0.707107   
     length 1.11178   
     axis -90 -45 -2.85299e-015   XYZ
    dof rx rz
    limits (-45.0 45.0)
           (-45.0 45.0)
  end
:hierarchy
  begin
    root lhipjoint rhipjoint lowerback
    lhipjoint lfemur
    lfemur ltibia
    ltibia lfoot
    lfoot ltoes
    rhipjoint rfemur
    rfemur rtibia
    rtibia rfoot
    rfoot rtoes
    lowerback upperback
    upperback thorax
    thorax lowerneck lclavicle rclavicle
    lowerneck upperneck
    upperneck head
    lclavicle lhumerus
    lhumerus lradius
    lradius lwrist
    lwrist lhand lthumb
    lhand lfingers
    rclavicle rhumerus
    rhumerus rradius
    rradius rwrist
    rwrist rhand rthumb
    rhand rfingers
end

#!OML:ASF C:\KaitlinTest1\Natural Motions\Nikki\Session 2\Nikki.ASF
:FULLY-SPECIFIED
:DEGREES
287
root -12.8204 19.0119 4.99721 -131.89 88.1418 -144.229
lowerback -10.4048 -1.25497 2.50297
upperback -6.62433 -1.58756 -1.07594
thorax -1.1729 -0.772633 -2.66685
lowerneck -15.4535 -13.8017 -7.31038
upperneck 2.51557 39.2805 4.48916
head 166.452 58.1148 -38.9563
rclavicle 3.16068e-014 1.55052e-014
rhumerus -36.3568 29.1565 -106.573
rradius 62.2765
rwrist -7.03862
rhand -38.8521 9.34774
rfingers 7.12502
rthumb -11.861 -20.2963
lclavicle 3.16068e-014 1.55052e-014
lhumerus -25.2819 -24.4837 93.3547
lradius 61.8067
lwrist 8.33541
lhand -35.5007 -0.28013
lfingers 7.12502
lthumb -8.62795 29.5236
rfemur -16.0941 -10.3964 19.7454
rtibia 20.8748
rfoot 9.93492 11.7245
rtoes -3.24417e-013
lfemur -14.4117 5.53747 -17.1469
ltibia 10.1899
lfoot 24.3624 -10.3829
ltoes -3.49861e-013
288
root -12.8187 19.1457 4.99508 -134.619 88.3126 -146.829
lowerback -10.2866 -1.27129 2.45622
upperback -6.6571 -1.60183 -1.21138
thorax -1.27532 -0.78272 -2.77918
lowerneck -15.5063 -13.7507 -7.25175
upperneck 2.55226 39.4877 4.545
head 166.569 58.0116 -38.9397
rclavicle 9.29318e-015 -3.97569e-015
rhumerus -36.8738 30.0223 -106.695
rradius 63.7085
rwrist -7.6462
rhand -38.9356 9.73712
rfingers 7.12502
rthumb -11.9416 -19.9023
lclavicle 9.29318e-015 -3.97569e-015
lhumerus -25.3916 -24.6242 92.9304
lradius 62.8297
lwrist 8.73007
lhand -35.7305 -0.449995
lfingers 7.12502
lthumb -8.84973 29.3444
rfemur -16.1692 -12.2446 19.7485
rtibia 20.9292
rfoot 9.60937 13.0549
rtoes 3.81667e-014
lfemur -14.4468 5.95275 -17.4197
ltibia 10.6353
lfoot 24.1202 -10.9002
ltoes 1.27222e-014
289
root -12.8294 19.2721 4.99699 -141.323 88.2792 -153.608
lowerback -10.1512 -1.34043 2.41104
upperback -6.80287 -1.67866 -1.33378
thorax -1.50985 -0.824224 -2.88232
lowerneck -15.4769 -13.757 -7.21814
upperneck 2.58424 39.5336 4.55728
head 166.485 57.9843 -38.9948
rclavicle -3.60297e-014 -2.06736e-014
rhumerus -37.0717 30.8503 -106.731
rradius 64.8214
rwrist -7.95854
rhand -39.0092 9.91265
rfingers 7.12502
rthumb -12.0126 -19.7226
lclavicle -3.60297e-014 -2.06736e-014
lhumerus -25.451 -24.7577 92.5246
lradius 63.7295
lwrist 8.71548
lhand -35.9282 -0.50415
lfingers 7.12502
lthumb -9.04051 29.2821
rfemur -16.5832 -13.2139 19.6979
rtibia 21.1414
rfoot 9.91194 13.7047
rtoes 1.62208e-013
lfemur -14.684 6.45264 -17.7118
ltibia 10.716
lfoot 24.0913 -12.0281
ltoes 1.97194e-013
290
root -12.8324 19.3946 4.99967 -144.729 88.3155 -156.999
lowerback -9.99027 -1.37961 2.31964
upperback -6.96095 -1.71249 -1.36627
thorax -1.76361 -0.841147 -2.86137
lowerneck -15.3673 -13.6954 -7.34879
upperneck 2.6776 39.8395 4.58349
head 166.702 57.6615 -38.8563
rclavicle 1.75427e-014 -2.38542e-015
rhumerus -37.4275 31.451 -106.757
rradius 65.849
rwrist -8.1692
rhand -39.3215 10.0493
rfingers 7.12502
rthumb -12.3136 -19.5682
lclavicle 1.75427e-014 -2.38542e-015
lhumerus -25.5147 -24.7547 92.2469
lradius 64.363
lwrist 8.48937
lhand -36.1508 -0.676753
lfingers 7.12502
lthumb -9.25528 29.1001
rfemur -16.9178 -14.1088 19.6758
rtibia 21.4451
rfoot 9.78672 14.9869
rtoes 2.8625e-014
lfemur -14.5969 7.31334 -17.9897
ltibia 10.3015
lfoot 24.1578 -13.495
ltoes -1.11319e-013
291
root -12.8348 19.5075 5.0021 -143.606 88.3812 -155.823
lowerback -9.93342 -1.32294 2.27952
upperback -7.02346 -1.63012 -1.33354
thorax -1.85207 -0.798435 -2.79619
lowerneck -15.2889 -13.7364 -7.5423
upperneck 2.72709 39.9419 4.51094
head 166.556 57.4572 -38.9062
rclavicle 1.09332e-014 4.37326e-015
rhumerus -37.5626 31.5028 -106.487
rradius 66.7863
rwrist -7.55153
rhand -39.3961 10.1727
rfingers 7.12502
rthumb -12.3856 -19.4404
lclavicle 1.09332e-014 4.37326e-015
lhumerus -25.4654 -24.7221 92.1056
lradius 64.8922
lwrist 8.04509
lhand -36.5435 -0.872227
lfingers 7.12502
lthumb -9.63421 28.8875
rfemur -17.1783 -14.7346 19.757
rtibia 21.7352
rfoot 9.63056 16.3815
rtoes -1.84472e-013
lfemur -14.3432 7.28188 -17.9136
ltibia 9.66231
lfoot 24.231 -14.0974
ltoes -1.49486e-013
292
root -12.8347 19.6158 5.001 -144.884 88.5376 -156.93
lowerback -9.88265 -1.29878 2.21444
upperback -6.98124 -1.59596 -1.38035
thorax -1.83225 -0.780688 -2.80475
lowerneck -15.2648 -13.6899 -7.63089
upperneck 2.75392 40.0586 4.50013
head 166.585 57.4385 -38.9038
rclavicle 1.73937e-015 -6.75868e-015
rhumerus -37.4657 31.5448 -106.288
rradius 67.5071
rwrist -7.01318
rhand -39.2669 10.1265
rfingers 7.12502
rthumb -12.261 -19.4941
lclavicle 1.73937e-015 -6.75868e-015
lhumerus -25.2931 -24.6532 91.7141
lradius 65.3528
lwrist 7.81187
lhand -36.7531 -0.994632
lfingers 7.12502
lthumb -9.83644 28.7556
rfemur -17.2795 -15.2344 19.6568
rtibia 21.9543
rfoot 9.53863 17.7518
rtoes 6.04305e-014
lfemur -14.0452 7.26607 -17.9905
ltibia 9.18854
lfoot 24.206 -14.4998
ltoes 1.65389e-013
293
root -12.8419 19.7018 5.00211 -148.445 88.6311 -160.259
lowerback -9.52981 -1.33048 2.06617
upperback -7.08942 -1.62022 -1.40405
thorax -2.13547 -0.792605 -2.73809
lowerneck -15.0524 -13.6023 -7.77377
upperneck 2.9579 40.6379 4.58842
head 166.875 56.8751 -38.7449
rclavicle -1.08835e-014 -1.35174e-014
rhumerus -37.8109 30.8617 -106.249
rradius 68.2972
rwrist -6.07207
rhand -39.014 10.4862
rfingers 7.12502
rthumb -12.0171 -19.1488
lclavicle -1.08835e-014 -1.35174e-014
lhumerus -25.4699 -24.2107 91.5171
lradius 65.6869
lwrist 7.06446
lhand -36.9177 -1.17072
lfingers 7.12502
lthumb -9.9952 28.572
rfemur -17.1955 -15.3106 19.5105
rtibia 21.9787
rfoot 9.45757 18.606
rtoes -6.67916e-014
lfemur -13.8173 7.16853 -18.0786
ltibia 8.93595
lfoot 24.3249 -14.8102
ltoes -6.36111e-015
294
root -12.8283 19.763 5.00331 -130.783 89.0901 -142.242
lowerback -9.52414 -1.14417 2.08496
upperback -6.99863 -1.38135 -1.41563
thorax -2.02866 -0.674294 -2.74409
lowerneck -14.8927 -13.5368 -7.8516
upperneck 3.08736 40.973 4.65734
head 167.069 56.6073 -38.6466
rclavicle 9.93923e-017 -7.95139e-015
rhumerus -38.195 31.5277 -106.196
rradius 69.3707
rwrist -6.31762
rhand -39.2313 10.3301
rfingers 7.12502
rthumb -12.2267 -19.2925
lclavicle 9.93923e-017 -7.95139e-015
lhumerus -25.4961 -23.8584 91.2439
lradius 65.9839
lwrist 6.36634
lhand -37.0202 -1.29219
lfingers 7.12502
lthumb -10.0942 28.4457
rfemur -17.0478 -15.5247 19.5682
rtibia 22.0029
rfoot 9.4422 19.8876
rtoes -2.79889e-013
lfemur -13.2665 7.61512 -18.0306
ltibia 8.6678
lfoot 24.069 -14.879
ltoes -2.83069e-013
295
root -12.8227 19.8263 5.03924 -73.82 89.1236 -85.7428
lowerback -10.0493 -0.921205 1.77008
upperback -7.28013 -1.0455 -1.24089
thorax -2.00454 -0.482967 -2.36782
lowerneck -14.6165 -13.4544 -7.97395
upperneck 3.31255 41.5485 4.79987
head 167.489 56.0802 -38.4303
rclavicle 3.47873e-016 -5.96354e-015
rhumerus -38.544 30.498 -106.157
rradius 69.9469
rwrist -5.5734
rhand -38.9117 10.7285
rfingers 7.12502
rthumb -11.9185 -18.9122
lclavicle 3.47873e-016 -5.96354e-015
lhumerus -25.8322 -23.5891 91.0966
lradius 66.3461
lwrist 5.74933
lhand -37.1457 -1.28057
lfingers 7.12502
lthumb -10.2152 28.4514
rfemur -17.656 -14.3101 20.0033
rtibia 22.0399
rfoot 9.64215 19.7217
rtoes -6.99722e-014
lfemur -13.6622 8.39229 -17.7338
ltibia 8.58659
lfoot 24.1151 -14.8534
ltoes 2.8625e-014
296
root -12.8316 19.8672 5.0456 -71.4631 89.1438 -83.2517
lowerback -9.74072 -0.965188 1.6306
upperback -7.46112 -1.08301 -1.19927
thorax -2.3607 -0.4981 -2.24323
lowerneck -14.3128 -13.3665 -8.11879
upperneck 3.50114 41.9008 4.85519
head 167.527 55.8781 -38.4041
rclavicle 1.20762e-014 5.96354e-015
rhumerus -39.1824 30.3235 -106.168
rradius 70.8113
rwrist -5.31059
rhand -38.8923 10.6618
rfingers 7.12502
rthumb -11.8998 -18.98
lclavicle 1.20762e-014 5.96354e-015
lhumerus -26.2622 -22.9721 90.9991
lradius 66.8097
lwrist 5.17495
lhand -36.979 -1.19879
lfingers 7.12502
lthumb -10.0543 28.541
rfemur -17.6882 -14.1532 19.9724
rtibia 22.0968
rfoot 9.92584 19.6415
rtoes -2.25819e-013
lfemur -13.6059 8.30109 -17.7153
ltibia 8.52333
lfoot 24.2752 -14.7841
ltoes -2.48083e-013
297
root -12.8469 19.8876 5.04338 -79.0302 89.1001 -90.5378
lowerback -9.25569 -0.989058 1.71274
upperback -7.46391 -1.12194 -1.23081
thorax -2.63371 -0.52753 -2.31691
lowerneck -14.3384 -13.3722 -8.11028
upperneck 3.54537 42.0532 4.87863
head 167.482 55.8229 -38.4813
rclavicle -4.82053e-015 7.95139e-016
rhumerus -39.3751 30.065 -106.013
rradius 71.5724
rwrist -5.27715
rhand -38.7756 10.6551
rfingers 7.12502
rthumb -11.7873 -18.9932
lclavicle -4.82053e-015 7.95139e-016
lhumerus -26.3593 -22.5152 90.7086
lradius 67.1654
lwrist 4.64058
lhand -36.9355 -1.2114
lfingers 7.12502
lthumb -10.0124 28.5304
rfemur -17.6267 -14.4238 20.0618
rtibia 22.2271
rfoot 10.0607 19.7517
rtoes 2.16278e-013
lfemur -13.1461 8.06506 -17.6251
ltibia 7.81563
lfoot 24.7581 -14.4146
ltoes 2.03555e-013
